<?xml version="1.0" encoding="utf-8"?>
<!-- Generator: Adobe Illustrator 21.1.0, SVG Export Plug-In . SVG Version: 6.00 Build 0)  -->
<svg version="1.1" id="Layer_1" xmlns="http://www.w3.org/2000/svg" xmlns:xlink="http://www.w3.org/1999/xlink" x="0px" y="0px"
	 viewBox="0 0 777.6 155.2" style="enable-background:new 0 0 777.6 155.2;" xml:space="preserve">
<style type="text/css">
	.st0{fill:#00AD93;}
	.st1{fill:#FFFFFF;}
</style>
<g>
	<g>
		<path class="st0" d="M154.6,53c-3.3-0.9-4.3-2.2-4.4-5.5c-1.3-26-25.7-44.8-51.2-39.9c-13.8,2.7-23.6,10.6-30.6,22.7
			c-0.7,0-0.8,0.1-1,0c-17.8-6.9-29.3-1.4-34.9,16.5c-0.4,1.2-1.8,2.4-2.9,3c-14,7.3-20.7,21.1-17.4,35.9
			c1.9,8.5,6.9,15.5,13.9,19.9v-8.2C21.9,93.6,19,88.3,18,82c-1.8-11.3,5.5-23.2,16.9-27.3c1.3-0.5,2.5-0.9,3.9-1.4
			c-0.4-8.5,2.5-15.1,10.6-18.4c8.4-3.4,14.9,0.4,21,6.7c9.1-22.1,24.3-32.8,48.3-26.3c9,2.4,15.6,8.6,20.3,16.5
			c4.8,8,5.4,16.9,4.4,26.1c1.6,0.1,2.8,0.2,4,0.3c12.8,0.5,22.5,10.7,22.3,23.5c-0.2,12.2-10.1,21.9-22.8,21.9
			c-14.9,0-29.9,0-44.8,0v6.8c15.1,0,30.2-0.1,45.4-0.2c14.8-0.1,26.8-11.3,28.4-25.5C177.7,70,169.1,56.9,154.6,53z"/>
	</g>
</g>
<g>
	<g>
		<polygon class="st1" points="55.1,70.5 55.1,85.2 79.7,85.2 79.7,109.8 94.5,109.8 94.5,70.5 		"/>
		<polygon class="st1" points="84.7,40.9 84.7,55.7 109.3,55.7 109.3,80.2 124.1,80.2 124.1,40.9 		"/>
		<polygon class="st1" points="64.9,131.3 33.7,131.3 33.7,100 64.9,100 		"/>
	</g>
</g>
<text stroke="#000" text-anchor="start" font-family="Rubik, sans-serif" font-weight="300" font-size="76" id="svg_5" y="100" x="220" stroke-opacity="null" stroke-width="0" fill="#ffffff">Learning Center</text>

</svg>
